<?xml version="1.0" encoding="utf-8"?>
<!-- Generator: Adobe Illustrator 28.0.0, SVG Export Plug-In . SVG Version: 6.00 Build 0)  -->
<svg version="1.1" id="图层_1" xmlns="http://www.w3.org/2000/svg" xmlns:xlink="http://www.w3.org/1999/xlink" x="0px" y="0px"
	 viewBox="0 0 1024 1024" style="enable-background:new 0 0 1024 1024;" xml:space="preserve">
<style type="text/css">
	.st0{fill:#6265AD;}
</style>
<g>
	<path class="st0" d="M546.3,298.4c-0.2,55.1-0.1,110.1,0.4,165.2c0.3,29.1,0.6,58.2,1,87.3c0.4,24.3-0.3,46.9,8.7,69.8
		c13.8,35.2,43.2,63.1,77.7,77.9c33.8,14.5,68.1,14.2,102.5,2.8c140-55.2,142.8-260.7,56.4-367.1c-18.4-24.9-39.5-47.4-61.3-69.4
		c-26.7-24.1-18.1-32.8,0.7-58.6c9.6-15.8,18.6-44.7,42.3-30.6c247,132.6,251.2,592.4-57.6,639.6c-82.8,8.7-165.4-27.4-216.9-94.8
		c-27.1-35.4-46.9-78.5-50.8-123c-4.5-51.2-4.7-102.6-4.9-154c-0.2-52.1-1-104.2,2.2-156.2c1.1-18.2,1.9-36.4,1.6-54.7
		c-0.3-14.5-0.1-31.6-6-45.1c-1.8-4-4.2-8.7-9-9.5c-34.2-6.1-74.3-6.2-104.8,12.5c-124.1,78-180.2,238.2-140.5,377.8
		c43.4,164.1,202.8,286.7,370.3,297.7c53.3,3.9,106.8,2.8,160.2,1.5c21.5-0.5,43.2-1.1,64.6-1.4c14.5-1.3,38.7,3.2,23.7,21.4
		c-254,202.8-666.5-3.4-724.5-306.5C24.7,359.6,163,77.3,407.4,58.9c74.8-1.9,149.7-2.5,224.5-3.4c32.2-0.3,64.3,1.9,95.7,11.5
		c11.6,4.1,31.7,11.1,31.5,23.5c-12,12.8-52.4,6.1-71.3,7.1c-42.7-0.3-105,1.2-128.2,34.5c-14.8,21.2-12.4,44.9-12.7,69.3
		c-0.3,29.1-0.6,58.3-0.7,87.4C546.3,292,546.3,295.2,546.3,298.4z"/>
	<path class="st0" d="M664.3,203c-16.3,0.2-28.6-10.9-30.6-26.7c-4.2-25.7,20-43,42.4-29.3c23.9,15.5,19.4,56.1-11.3,56.1L664.3,203
		z"/>
</g>
</svg>
